#Comment line ignore any data following # character 
#Hierarchical Translation and Rotation (.htr) file 
[Header]	
#Header keywords are followed by a single value 
FileType HTR		#Single word string
DataType HTRS		#Translation followed by rotation and scale data
FileVersion 1		#integer
NumSegments 64		#integer
NumFrames 3		#integer
DataFrameRate 30		#integer, data frame rate in this file
EulerRotationOrder ZYX
CalibrationUnits mm
RotationUnits Degrees
GlobalAxisofGravity Y
BoneLengthAxis Y
ScaleFactor 1.00
[SegmentNames&Hierarchy]
#CHILD	PARENT
Pinger_Root GLOBAL
Pelvis Pinger_Root
L_Hip Pelvis
R_Hip Pelvis
Rear_Leg01 Pelvis
Spine1 Pelvis
L_Leg01 L_Hip
L_Leg02 L_Leg01
L_Leg03 L_Leg02
L_Foot L_Leg03
L_Toe1_01 L_Foot
L_Toe2_01 L_Foot
L_Toe3_01 L_Foot
planeAlignerLeft L_Foot
L_Toe1_02 L_Toe1_01
L_Toe1_03 L_Toe1_02
L_Toe2_02 L_Toe2_01
L_Toe2_03 L_Toe2_02
L_Toe3_02 L_Toe3_01
L_Toe3_03 L_Toe3_02
planeLockWeightLeft planeAlignerLeft
R_Leg01 R_Hip
R_Leg02 R_Leg01
R_Leg03 R_Leg02
R_Foot R_Leg03
planeAlignerRight R_Foot
R_Toe1_01 R_Foot
R_Toe2_01 R_Foot
R_Toe3_01 R_Foot
planeLockWeightRight planeAlignerRight
R_Toe1_02 R_Toe1_01
R_Toe1_03 R_Toe1_02
R_Toe2_02 R_Toe2_01
R_Toe2_03 R_Toe2_02
R_Toe3_02 R_Toe3_01
R_Toe3_03 R_Toe3_02
Rear_Leg02 Rear_Leg01
Rear_Leg03 Rear_Leg02
Rear_Leg04 Rear_Leg03
Rear_Foot Rear_Leg04
planeAlignerCenter Rear_Foot
Rear_Toe1_01 Rear_Foot
Rear_Toe2_01 Rear_Foot
Rear_Toe3_01 Rear_Foot
planeLockWeightCenter planeAlignerCenter
Rear_Toe1_02 Rear_Toe1_01
Rear_Toe1_03 Rear_Toe1_02
Rear_Toe2_02 Rear_Toe2_01
Rear_Toe2_03 Rear_Toe2_02
Rear_Toe3_02 Rear_Toe3_01
Rear_Toe3_03 Rear_Toe3_02
Back_Bone Spine1
Head Spine1
Motor_Bone Back_Bone
Ping_Mechanism Back_Bone
BN_LookIK Head
bottomMouth Head
L_Mouth01 Head
L_mouthFront Head
mouthGun Head
R_Mouth01 Head
R_mouthFront Head
TopMouth Head
weapon_bone Head
[BasePosition]
#SegmentName Tx, Ty, Tz, Rx, Ry, Rz, BoneLength
Pinger_Root 0.000000 0.000000 0.000000 -90.000000 0.000000 0.000000 10.000000 
Pelvis 0.000000 0.000000 0.000000 0.000000 0.000000 0.000000 10.000000 
L_Hip 0.000000 0.000000 0.000000 0.000000 0.000000 0.000000 10.000000 
R_Hip 0.000000 0.000000 0.000000 0.000000 0.000000 0.000000 10.000000 
Rear_Leg01 0.000000 0.000000 0.000000 0.000000 0.000000 0.000000 10.000000 
Spine1 0.000000 0.000000 0.000000 0.000000 0.000000 0.000000 10.000000 
L_Leg01 0.000000 0.000000 0.000000 0.000000 0.000000 0.000000 10.000000 
L_Leg02 0.000000 0.000000 0.000000 0.000000 0.000000 0.000000 10.000000 
L_Leg03 0.000000 0.000000 0.000000 0.000000 0.000000 0.000000 10.000000 
L_Foot 0.000000 0.000000 0.000000 0.000000 0.000000 0.000000 10.000000 
L_Toe1_01 0.000000 0.000000 0.000000 0.000000 0.000000 0.000000 10.000000 
L_Toe2_01 0.000000 0.000000 0.000000 0.000000 0.000000 0.000000 10.000000 
L_Toe3_01 0.000000 0.000000 0.000000 0.000000 0.000000 0.000000 10.000000 
planeAlignerLeft 0.000000 0.000000 0.000000 0.000000 0.000000 0.000000 10.000000 
L_Toe1_02 0.000000 0.000000 0.000000 0.000000 0.000000 0.000000 10.000000 
L_Toe1_03 0.000000 0.000000 0.000000 0.000000 0.000000 0.000000 10.000000 
L_Toe2_02 0.000000 0.000000 0.000000 0.000000 0.000000 0.000000 10.000000 
L_Toe2_03 0.000000 0.000000 0.000000 0.000000 0.000000 0.000000 10.000000 
L_Toe3_02 0.000000 0.000000 0.000000 0.000000 0.000000 0.000000 10.000000 
L_Toe3_03 0.000000 0.000000 0.000000 0.000000 0.000000 0.000000 10.000000 
planeLockWeightLeft 0.000000 0.000000 0.000000 0.000000 0.000000 0.000000 10.000000 
R_Leg01 0.000000 0.000000 0.000000 0.000000 0.000000 0.000000 10.000000 
R_Leg02 0.000000 0.000000 0.000000 0.000000 0.000000 0.000000 10.000000 
R_Leg03 0.000000 0.000000 0.000000 0.000000 0.000000 0.000000 10.000000 
R_Foot 0.000000 0.000000 0.000000 0.000000 0.000000 0.000000 10.000000 
planeAlignerRight 0.000000 0.000000 0.000000 0.000000 0.000000 0.000000 10.000000 
R_Toe1_01 0.000000 0.000000 0.000000 0.000000 0.000000 0.000000 10.000000 
R_Toe2_01 0.000000 0.000000 0.000000 0.000000 0.000000 0.000000 10.000000 
R_Toe3_01 0.000000 0.000000 0.000000 0.000000 0.000000 0.000000 10.000000 
planeLockWeightRight 0.000000 0.000000 0.000000 0.000000 0.000000 0.000000 10.000000 
R_Toe1_02 0.000000 0.000000 0.000000 0.000000 0.000000 0.000000 10.000000 
R_Toe1_03 0.000000 0.000000 0.000000 0.000000 0.000000 0.000000 10.000000 
R_Toe2_02 0.000000 0.000000 0.000000 0.000000 0.000000 0.000000 10.000000 
R_Toe2_03 0.000000 0.000000 0.000000 0.000000 0.000000 0.000000 10.000000 
R_Toe3_02 0.000000 0.000000 0.000000 0.000000 0.000000 0.000000 10.000000 
R_Toe3_03 0.000000 0.000000 0.000000 0.000000 0.000000 0.000000 10.000000 
Rear_Leg02 0.000000 0.000000 0.000000 0.000000 0.000000 0.000000 10.000000 
Rear_Leg03 0.000000 0.000000 0.000000 0.000000 0.000000 0.000000 10.000000 
Rear_Leg04 0.000000 0.000000 0.000000 0.000000 0.000000 0.000000 10.000000 
Rear_Foot 0.000000 0.000000 0.000000 0.000000 0.000000 0.000000 10.000000 
planeAlignerCenter 0.000000 0.000000 0.000000 0.000000 0.000000 0.000000 10.000000 
Rear_Toe1_01 0.000000 0.000000 0.000000 0.000000 0.000000 0.000000 10.000000 
Rear_Toe2_01 0.000000 0.000000 0.000000 0.000000 0.000000 0.000000 10.000000 
Rear_Toe3_01 0.000000 0.000000 0.000000 0.000000 0.000000 0.000000 10.000000 
planeLockWeightCenter 0.000000 0.000000 0.000000 0.000000 0.000000 0.000000 10.000000 
Rear_Toe1_02 0.000000 0.000000 0.000000 0.000000 0.000000 0.000000 10.000000 
Rear_Toe1_03 0.000000 0.000000 0.000000 0.000000 0.000000 0.000000 10.000000 
Rear_Toe2_02 0.000000 0.000000 0.000000 0.000000 0.000000 0.000000 10.000000 
Rear_Toe2_03 0.000000 0.000000 0.000000 0.000000 0.000000 0.000000 10.000000 
Rear_Toe3_02 0.000000 0.000000 0.000000 0.000000 0.000000 0.000000 10.000000 
Rear_Toe3_03 0.000000 0.000000 0.000000 0.000000 0.000000 0.000000 10.000000 
Back_Bone 0.000000 0.000000 0.000000 0.000000 0.000000 0.000000 10.000000 
Head 0.000000 0.000000 0.000000 0.000000 0.000000 0.000000 10.000000 
Motor_Bone 0.000000 0.000000 0.000000 0.000000 0.000000 0.000000 10.000000 
Ping_Mechanism 0.000000 0.000000 0.000000 0.000000 0.000000 0.000000 10.000000 
BN_LookIK 0.000000 0.000000 0.000000 0.000000 0.000000 0.000000 10.000000 
bottomMouth 0.000000 0.000000 0.000000 0.000000 0.000000 0.000000 10.000000 
L_Mouth01 0.000000 0.000000 0.000000 0.000000 0.000000 0.000000 10.000000 
L_mouthFront 0.000000 0.000000 0.000000 0.000000 0.000000 0.000000 10.000000 
mouthGun 0.000000 0.000000 0.000000 0.000000 0.000000 0.000000 10.000000 
R_Mouth01 0.000000 0.000000 0.000000 0.000000 0.000000 0.000000 10.000000 
R_mouthFront 0.000000 0.000000 0.000000 0.000000 0.000000 0.000000 10.000000 
TopMouth 0.000000 0.000000 0.000000 0.000000 0.000000 0.000000 10.000000 
weapon_bone 0.000000 0.000000 0.000000 0.000000 0.000000 0.000000 10.000000 
#Beginning of Data. Separated by tabs
#Fr	Tx	Ty	Tz	Rx	Ry	Rz	SF
[Pinger_Root]
16 0.000000 0.000000 0.000000 -0.000075 -0.000000 -0.000020 0.000000
17 0.000000 0.000000 0.000000 -0.000075 -0.000000 -0.000020 0.000000
18 0.000000 0.000000 0.000000 -0.000075 -0.000000 -0.000020 0.000000
[Pelvis]
16 -267.393433 -845.936340 3450.200439 -122.894051 -77.844788 109.865189 3562.441406
17 -266.526001 -826.992554 3466.940186 -130.803268 -76.423836 119.123474 3574.161133
18 -265.658600 -808.847412 3494.840332 -134.489532 -75.599991 122.870255 3597.042969
[L_Hip]
16 5.766392 125.831482 872.656799 -165.221603 -58.210983 79.022980 881.701050
17 5.766392 125.831482 872.656799 -154.058868 -57.156254 66.525391 881.701050
18 5.766392 125.831482 872.656799 -154.058868 -57.156254 66.525391 881.701050
[R_Hip]
16 5.765438 125.836372 -872.654907 -2.520501 82.413048 74.352089 881.699829
17 5.765438 125.836372 -872.654907 -2.520501 82.413048 74.352089 881.699829
18 5.765438 125.836372 -872.654907 -2.520501 82.413048 74.352089 881.699829
[Rear_Leg01]
16 -192.298416 -925.602966 -0.001907 121.671722 0.125832 -145.588974 945.367432
17 -192.298416 -925.602966 -0.001907 121.102821 -2.962267 -145.460144 945.367432
18 -192.298416 -925.602966 -0.001907 120.398270 -4.045774 -145.539658 945.367432
[Spine1]
16 290.604584 5.007505 0.000477 14.600190 -3.394234 20.783096 290.647736
17 290.604584 5.007505 0.000477 14.447199 -0.531327 20.372622 290.647736
18 290.604584 5.007505 0.000477 14.914751 0.759891 19.770460 290.647736
[L_Leg01]
16 761.932007 -0.002384 -0.069261 15.299662 -36.004555 -6.988708 761.932068
17 761.932007 -0.002384 -0.069261 16.768999 -38.294949 -13.404484 761.932068
18 761.932007 -0.002384 -0.069261 17.508169 -38.134792 -12.651031 761.932068
[L_Leg02]
16 1441.140503 -0.000954 -0.000715 -1.442262 0.528586 -100.677368 1441.140503
17 1441.140503 -0.000954 -0.000715 -1.470810 0.553037 -98.913612 1441.140503
18 1441.140503 -0.000954 -0.000715 -1.462892 0.542823 -99.504593 1441.140503
[L_Leg03]
16 1686.963989 -0.000715 -0.000954 0.036499 -0.010464 100.753624 1686.963989
17 1686.963989 -0.000715 -0.000954 0.036586 -0.010154 99.780640 1686.963989
18 1686.963989 -0.000715 -0.000954 0.036565 -0.010232 100.025940 1686.963989
[L_Foot]
16 3041.570068 -30.715107 11.297464 -0.891482 2.567576 21.932316 3041.746094
17 3041.570068 -30.715107 11.297464 -0.304378 2.570296 22.025522 3041.746094
18 3041.570068 -30.715107 11.297464 -0.405392 2.579322 22.166187 3041.746094
[L_Toe1_01]
16 -188.216690 -224.732346 -21.137953 94.280670 -28.131250 179.902283 293.899567
17 -188.216690 -224.732346 -21.137953 94.280670 -28.131250 179.902283 293.899567
18 -188.216690 -224.732346 -21.137953 94.280670 -28.131250 179.902283 293.899567
[L_Toe2_01]
16 200.746536 -219.926590 148.838394 -108.981369 -14.927822 -28.370031 332.896027
17 200.746536 -219.926590 148.838394 -108.981361 -14.927752 -28.370132 332.896027
18 200.746536 -219.926590 148.838394 -108.981346 -14.927677 -28.370234 332.896027
[L_Toe3_01]
16 188.832520 -219.859131 -191.078659 -119.528816 36.514465 -78.862701 347.140900
17 188.832520 -219.859131 -191.078659 -119.528816 36.514465 -78.862701 347.140900
18 188.832520 -219.859131 -191.078659 -119.528816 36.514465 -78.862701 347.140900
[planeAlignerLeft]
16 0.812531 -811.448792 -0.314951 0.000000 -90.000000 -90.001900 811.449280
17 0.812531 -811.448792 -0.314951 0.000000 -90.000000 -90.001900 811.449280
18 0.812531 -811.448792 -0.314951 0.000000 -90.000000 -90.001900 811.449280
[L_Toe1_02]
16 413.761139 0.000477 0.000000 0.001661 0.070897 0.001661 413.761139
17 413.761139 0.000477 0.000000 0.001661 0.070897 0.001661 413.761139
18 413.761139 0.000477 0.000000 0.001661 0.070897 0.001661 413.761139
[L_Toe1_03]
16 464.317322 0.000358 -0.000089 0.001673 -0.448396 -0.003292 464.317322
17 464.317322 0.000358 -0.000089 0.001673 -0.448396 -0.003292 464.317322
18 464.317322 0.000358 -0.000089 0.001673 -0.448396 -0.003292 464.317322
[L_Toe2_02]
16 342.235809 -0.000477 0.000238 0.004684 -81.230255 0.004684 342.235809
17 342.235809 -0.000477 0.000238 0.004684 -81.230568 0.004684 342.235809
18 342.235809 -0.000477 0.000238 0.004684 -81.230881 0.004684 342.235809
[L_Toe2_03]
16 420.210846 -0.000715 0.000000 179.993195 44.163803 -179.999222 420.210846
17 420.210846 -0.000715 0.000000 179.993195 44.163795 -179.999222 420.210846
18 420.210846 -0.000715 0.000000 179.993195 44.163803 -179.999222 420.210846
[L_Toe3_02]
16 329.270111 0.000954 0.000000 0.004675 -84.679993 0.004675 329.270111
17 329.270111 0.000954 0.000000 0.004675 -84.679321 0.004675 329.270111
18 329.270111 0.000954 0.000000 0.004675 -84.678665 0.004675 329.270111
[L_Toe3_03]
16 439.137451 -0.001907 0.000954 179.993454 37.691116 -179.998764 439.137451
17 439.137451 -0.001907 0.000954 179.993454 37.691124 -179.998764 439.137451
18 439.137451 -0.001907 0.000954 179.993454 37.691116 -179.998764 439.137451
[planeLockWeightLeft]
16 -0.000954 0.000238 -0.000305 -0.011826 -0.004376 0.005620 0.001029
17 -0.000954 0.000238 -0.000305 -0.011826 -0.004376 0.005620 0.001029
18 -0.000954 0.000238 -0.000305 -0.011826 -0.004376 0.005620 0.001029
[R_Leg01]
16 761.455627 -0.001907 -0.000358 102.019768 -63.083736 67.804893 761.455688
17 761.455627 -0.001907 -0.000358 104.105934 -61.370064 68.124725 761.455688
18 761.455627 -0.001907 -0.000358 103.875595 -60.697311 69.628983 761.455688
[R_Leg02]
16 1441.140625 0.000000 -0.000238 1.214958 -0.465791 -98.196442 1441.140625
17 1441.140625 0.000000 -0.000238 1.212948 -0.470999 -97.704781 1441.140625
18 1441.140625 0.000000 -0.000238 1.203900 -0.483139 -96.752083 1441.140625
[R_Leg03]
16 1686.963989 0.000954 0.001431 -0.046034 0.010143 97.787170 1686.963989
17 1686.963989 0.000954 0.001431 -0.046072 0.009966 97.346672 1686.963989
18 1686.963989 0.000954 0.001431 -0.051299 0.011603 96.354485 1686.963989
[R_Foot]
16 3041.560059 -30.531288 -11.204481 0.907394 -23.919050 27.520462 3041.734131
17 3041.560059 -30.531288 -11.204481 1.079870 -24.304312 28.742720 3041.734131
18 3041.560059 -30.531288 -11.204481 1.053518 -24.522997 29.544100 3041.734131
[planeAlignerRight]
16 -0.635147 -812.270569 -0.364304 0.000000 -89.960434 -90.005180 812.270874
17 -0.635147 -812.270569 -0.364304 0.000000 -89.960434 -90.005180 812.270874
18 -0.635147 -812.270569 -0.364304 0.000000 -89.960434 -90.005180 812.270874
[R_Toe1_01]
16 -188.383347 -224.864899 21.052242 77.501541 2.586504 -171.440872 294.101532
17 -188.383347 -224.864899 21.052242 77.501541 2.586504 -171.440872 294.101532
18 -188.383347 -224.864899 21.052242 77.501541 2.586504 -171.440872 294.101532
[R_Toe2_01]
16 200.637817 -220.002121 -148.787384 -87.006645 41.695038 -47.429588 332.857574
17 200.637817 -220.002121 -148.787384 -87.006287 41.697548 -47.428608 332.857574
18 200.637817 -220.002121 -148.787384 -87.005928 41.700077 -47.427643 332.857574
[R_Toe3_01]
16 188.606735 -220.092957 191.126343 -74.776886 -14.743338 -63.952141 347.192566
17 188.606735 -220.092957 191.126343 -74.776886 -14.743338 -63.952141 347.192566
18 188.606735 -220.092957 191.126343 -74.776886 -14.743338 -63.952141 347.192566
[planeLockWeightRight]
16 -0.000477 0.000000 0.000000 -0.011823 -0.004379 -0.000027 0.000477
17 -0.000477 0.000000 0.000000 -0.011823 -0.004379 -0.000027 0.000477
18 -0.000477 0.000000 0.000000 -0.011823 -0.004379 -0.000027 0.000477
[R_Toe1_02]
16 413.762085 0.000477 -0.000119 0.001417 -21.783230 0.001417 413.762085
17 413.762085 0.000477 -0.000119 0.001417 -21.783455 0.001417 413.762085
18 413.762085 0.000477 -0.000119 0.001417 -21.783667 0.001417 413.762085
[R_Toe1_03]
16 464.317810 0.000000 0.001088 0.000898 28.935526 -0.003161 464.317810
17 464.317810 0.000000 0.001088 0.000898 28.935749 -0.003161 464.317810
18 464.317810 0.000000 0.001088 0.000898 28.935970 -0.003161 464.317810
[R_Toe2_02]
16 342.234741 -0.000954 0.000238 -0.002334 -78.761276 -0.002334 342.234741
17 342.234741 -0.000954 0.000238 -0.002334 -78.761276 -0.002334 342.234741
18 342.234741 -0.000954 0.000238 -0.002334 -78.761276 -0.002334 342.234741
[R_Toe2_03]
16 420.210846 0.000715 -0.000268 -179.994690 71.308655 -179.998230 420.210846
17 420.210846 0.000715 -0.000268 -179.994690 71.308937 -179.998230 420.210846
18 420.210846 0.000715 -0.000268 -179.994690 71.309196 -179.998230 420.210846
[R_Toe3_02]
16 329.270355 -0.000477 -0.000954 0.001175 -84.010017 0.001175 329.270355
17 329.270355 -0.000477 -0.000954 0.001175 -84.013718 0.001175 329.270355
18 329.270355 -0.000477 -0.000954 0.001175 -84.017487 0.001175 329.270355
[R_Toe3_03]
16 439.137939 0.000238 0.001431 -179.995331 57.506451 -179.988052 439.137939
17 439.137939 0.000238 0.001431 -179.995331 57.506710 -179.988052 439.137939
18 439.137939 0.000238 0.001431 -179.995331 57.506943 -179.988052 439.137939
[Rear_Leg02]
16 1162.777710 -0.029802 0.005960 -41.032261 37.003048 -150.974045 1162.777710
17 1162.777710 -0.029802 0.005960 -40.317276 37.805031 -149.832016 1162.777710
18 1162.777710 -0.029802 0.005960 -39.259567 38.919151 -148.151962 1162.777710
[Rear_Leg03]
16 607.192505 -0.013351 -0.073195 0.010206 -0.005655 74.336510 607.192505
17 607.192505 -0.013351 -0.073195 0.010226 -0.005620 73.943428 607.192505
18 607.192505 -0.013351 -0.073195 0.010245 -0.005585 73.550331 607.192505
[Rear_Leg04]
16 995.874512 -0.020504 -0.011921 -0.045436 -0.017434 81.434029 995.874573
17 995.874512 -0.020504 -0.011921 -0.045295 -0.017797 80.517136 995.874573
18 995.874512 -0.020504 -0.011921 -0.043519 -0.016399 79.233063 995.874573
[Rear_Foot]
16 3096.176270 -0.067472 -0.041425 94.037918 43.305485 -71.707535 3096.176270
17 3096.176270 -0.067472 -0.041425 94.499901 43.126022 -71.401016 3096.176270
18 3096.176270 -0.067472 -0.041425 94.532623 43.058964 -71.489555 3096.176270
[planeAlignerCenter]
16 0.350077 0.966311 -838.790894 0.000009 0.000003 -179.999985 838.791565
17 0.350077 0.966311 -838.790894 0.000009 0.000003 -179.999985 838.791565
18 0.350077 0.966311 -838.790894 0.000009 0.000003 -179.999985 838.791565
[Rear_Toe1_01]
16 0.653352 83.966492 -371.173737 -30.738724 22.793760 86.621201 380.553192
17 0.653352 83.966492 -371.173737 -30.739031 22.793396 86.620728 380.553192
18 0.653352 83.966492 -371.173737 -30.739349 22.793037 86.620285 380.553192
[Rear_Toe2_01]
16 178.200760 -294.826019 -362.060547 -8.137654 -0.241606 -62.318680 499.765686
17 178.200760 -294.826019 -362.060547 -8.137767 -0.241885 -62.316422 499.765686
18 178.200760 -294.826019 -362.060547 -8.137878 -0.242164 -62.314167 499.765686
[Rear_Toe3_01]
16 -153.359680 -308.780914 -362.060852 3.735147 13.480350 -102.808357 499.952881
17 -153.359680 -308.780914 -362.060852 3.735170 13.480916 -102.805634 499.952881
18 -153.359680 -308.780914 -362.060852 3.735195 13.481479 -102.802879 499.952881
[planeLockWeightCenter]
16 -0.000062 0.000238 0.000000 -0.011814 -0.004373 -0.000015 0.000246
17 -0.000062 0.000238 0.000000 -0.011814 -0.004373 -0.000015 0.000246
18 -0.000062 0.000238 0.000000 -0.011814 -0.004373 -0.000015 0.000246
[Rear_Toe1_02]
16 379.707825 0.194073 0.000477 -0.006719 -30.019583 -0.006719 379.707855
17 379.707825 0.194073 0.000477 -0.006719 -30.019590 -0.006719 379.707855
18 379.707825 0.194073 0.000477 -0.006719 -30.019583 -0.006719 379.707855
[Rear_Toe1_03]
16 500.129700 0.165701 0.000119 -179.994812 70.577843 -179.998367 500.129761
17 500.129700 0.165701 0.000119 -179.994812 70.580544 -179.998367 500.129761
18 500.129700 0.165701 0.000119 -179.994812 70.583206 -179.998367 500.129761
[Rear_Toe2_02]
16 340.494507 0.000238 -0.000954 0.001661 0.064643 0.001661 340.494507
17 340.494507 0.000238 -0.000954 0.001661 0.064498 0.001661 340.494507
18 340.494507 0.000238 -0.000954 0.001661 0.064352 0.001661 340.494507
[Rear_Toe2_03]
16 433.103577 0.000000 0.000238 -0.003297 -0.804494 0.001683 433.103546
17 433.103577 0.000000 0.000238 -0.003297 -0.804494 0.001683 433.103546
18 433.103577 0.000000 0.000238 -0.003297 -0.804494 0.001683 433.103546
[Rear_Toe3_02]
16 340.494141 -0.000358 -0.000477 -0.002600 -36.654476 -0.002600 340.494171
17 340.494141 -0.000358 -0.000477 -0.002600 -36.654480 -0.002600 340.494171
18 340.494141 -0.000358 -0.000477 -0.002600 -36.654480 -0.002600 340.494171
[Rear_Toe3_03]
16 433.103577 0.001431 -0.000238 0.006396 30.714851 -0.001650 433.103546
17 433.103577 0.001431 -0.000238 0.006396 30.714846 -0.001650 433.103546
18 433.103577 0.001431 -0.000238 0.006396 30.714851 -0.001650 433.103546
[Back_Bone]
16 1312.175781 -701.934692 0.000954 9.787165 -13.186898 -99.493507 1488.125488
17 1312.175781 -701.934692 0.000954 10.329282 -14.157935 -98.501839 1488.125488
18 1312.175781 -701.934692 0.000954 10.535625 -15.023749 -96.032608 1488.125488
[Head]
16 1406.159424 809.709290 0.001431 -0.891946 -1.299742 44.771431 1622.625488
17 1406.159424 809.709290 0.001431 -0.965316 -1.258734 47.675945 1622.625488
18 1406.159424 809.709290 0.001431 -0.945171 -1.275650 46.903778 1622.625488
[Motor_Bone]
16 1158.364380 -417.834747 0.000477 6.628101 -26.756845 -97.438004 1231.419434
17 1158.364380 -417.834747 0.000477 4.031370 -26.283785 -103.948257 1231.419434
18 1158.364380 -417.834747 0.000477 0.802283 -25.065844 -109.720772 1231.419434
[Ping_Mechanism]
16 1242.587769 -621.067139 -27.138977 0.000103 -0.000053 82.120995 1389.419067
17 1241.541138 -624.038391 -40.229340 0.000103 -0.000053 82.120995 1390.131958
18 1240.252563 -627.073669 -46.517330 0.000103 -0.000053 82.120995 1390.543701
[BN_LookIK]
16 193.241119 1380.371704 -0.002861 0.000000 89.965736 -31.038179 1393.832153
17 193.241119 1380.371704 -0.002861 0.000000 89.965736 -31.038179 1393.832153
18 193.241119 1380.371704 -0.002861 0.000000 89.965736 -31.038179 1393.832153
[bottomMouth]
16 -435.092926 615.759399 -0.000954 -0.000022 0.000016 73.527184 753.966492
17 -435.092926 615.759399 -0.000954 -0.000022 0.000016 73.527184 753.966492
18 -435.092926 615.759399 -0.000954 -0.000022 0.000016 73.527184 753.966492
[L_Mouth01]
16 554.440979 7.658243 838.222046 150.204178 23.759130 109.605339 1005.027161
17 554.440979 7.658243 838.222046 150.204178 23.759130 109.605339 1005.027161
18 554.440979 7.658243 838.222046 150.204178 23.759130 109.605339 1005.027161
[L_mouthFront]
16 551.629089 934.514771 339.150421 0.000081 2.804060 79.119301 1136.941284
17 551.629089 934.514771 339.150421 0.000081 2.804060 79.119301 1136.941284
18 551.629089 934.514771 339.150421 0.000081 2.804060 79.119301 1136.941284
[mouthGun]
16 55.332661 1627.420898 0.000000 0.000023 0.000009 -11.038128 1628.361328
17 55.332661 1627.420898 0.000000 0.000023 0.000009 -11.038128 1628.361328
18 55.332661 1627.420898 0.000000 0.000023 0.000009 -11.038128 1628.361328
[R_Mouth01]
16 554.442383 7.659197 -838.223938 29.795891 -23.759109 109.605331 1005.029541
17 554.442383 7.659197 -838.223938 29.795891 -23.759109 109.605331 1005.029541
18 554.442383 7.659197 -838.223938 29.795891 -23.759109 109.605331 1005.029541
[R_mouthFront]
16 551.629089 934.514282 -339.151367 0.000029 -2.803930 79.119133 1136.941162
17 551.629089 934.514282 -339.151367 0.000029 -2.803930 79.119133 1136.941162
18 551.629089 934.514282 -339.151367 0.000029 -2.803930 79.119133 1136.941162
[TopMouth]
16 461.269867 -56.106091 -0.008583 -0.000059 -0.000268 92.025169 464.669525
17 461.269867 -56.106091 -0.008583 -0.000059 -0.000268 92.025169 464.669525
18 461.269867 -56.106091 -0.008583 -0.000059 -0.000268 92.025169 464.669525
[weapon_bone]
16 -987.239868 1448.372803 0.001431 0.000000 89.965736 -31.038221 1752.833740
17 -987.239868 1448.372803 0.001431 0.000000 89.965736 -31.038221 1752.833740
18 -987.239868 1448.372803 0.001431 0.000000 89.965736 -31.038221 1752.833740
